<svg xmlns="http://www.w3.org/2000/svg" width="640" height="360" viewBox="0 0 640 360">
<rect width="640" height="360" rx="22" fill="#0B1220"/>
<rect x="28" y="28" width="584" height="304" rx="18" fill="#EEF2F7"/>
<rect x="28" y="28" width="584" height="84" rx="18" fill="#475569"/>
<text x="58" y="72" font-family="Arial" font-size="24" font-weight="700" fill="#FFFFFF">Cong van Hanh chinh chuyen nghiep 1</text>
<text x="58" y="96" font-family="Arial" font-size="13" fill="#FFFFFF" opacity="0.86">Hanh chinh · ExcelAI template #063</text>
<rect x="58" y="128" width="524" height="190" rx="10" fill="#F8FAFC" stroke="#CBD5E1"/>
<rect x="58" y="128" width="524" height="36" rx="10" fill="#E2E8F0"/>
<text x="72" y="154" font-family="Arial" font-size="11" font-weight="700" fill="#0F172A">Ma muc</text><text x="158" y="154" font-family="Arial" font-size="11" font-weight="700" fill="#0F172A">Noi dung</text><text x="244" y="154" font-family="Arial" font-size="11" font-weight="700" fill="#0F172A">Bo phan</text><text x="330" y="154" font-family="Arial" font-size="11" font-weight="700" fill="#0F172A">Ngay</text><text x="416" y="154" font-family="Arial" font-size="11" font-weight="700" fill="#0F172A">Han xu ly</text><text x="502" y="154" font-family="Arial" font-size="11" font-weight="700" fill="#0F172A">Nguoi phu </text>
<rect x="58" y="178" width="524" height="24" rx="4" fill="#FFFFFF" opacity="0.95"/><rect x="72" y="185" width="120" height="6" rx="3" fill="#475569" opacity="0.45"/><rect x="246" y="185" width="96" height="6" rx="3" fill="#94A3B8" opacity="0.65"/><rect x="402" y="185" width="72" height="6" rx="3" fill="#CBD5E1" opacity="0.85"/><rect x="58" y="210" width="524" height="24" rx="4" fill="#FFFFFF" opacity="0.87"/><rect x="72" y="217" width="128" height="6" rx="3" fill="#475569" opacity="0.45"/><rect x="246" y="217" width="101" height="6" rx="3" fill="#94A3B8" opacity="0.65"/><rect x="402" y="217" width="76" height="6" rx="3" fill="#CBD5E1" opacity="0.85"/><rect x="58" y="242" width="524" height="24" rx="4" fill="#FFFFFF" opacity="0.79"/><rect x="72" y="249" width="136" height="6" rx="3" fill="#475569" opacity="0.45"/><rect x="246" y="249" width="106" height="6" rx="3" fill="#94A3B8" opacity="0.65"/><rect x="402" y="249" width="80" height="6" rx="3" fill="#CBD5E1" opacity="0.85"/><rect x="58" y="274" width="524" height="24" rx="4" fill="#FFFFFF" opacity="0.71"/><rect x="72" y="281" width="144" height="6" rx="3" fill="#475569" opacity="0.45"/><rect x="246" y="281" width="111" height="6" rx="3" fill="#94A3B8" opacity="0.65"/><rect x="402" y="281" width="84" height="6" rx="3" fill="#CBD5E1" opacity="0.85"/><rect x="58" y="306" width="524" height="24" rx="4" fill="#FFFFFF" opacity="0.63"/><rect x="72" y="313" width="152" height="6" rx="3" fill="#475569" opacity="0.45"/><rect x="246" y="313" width="116" height="6" rx="3" fill="#94A3B8" opacity="0.65"/><rect x="402" y="313" width="88" height="6" rx="3" fill="#CBD5E1" opacity="0.85"/>
<rect x="434" y="46" width="148" height="38" rx="10" fill="#FFFFFF" opacity="0.18"/>
<text x="458" y="71" font-family="Arial" font-size="13" font-weight="700" fill="#FFFFFF">XLSX READY</text>
</svg>